<?xml version="1.0" encoding="utf-8"?>
<!-- Generator: Adobe Illustrator 19.0.1, SVG Export Plug-In . SVG Version: 6.00 Build 0)  -->
<svg version="1.1" id="Слой_1" xmlns="http://www.w3.org/2000/svg" xmlns:xlink="http://www.w3.org/1999/xlink" x="0px" y="0px"
	 viewBox="0 0 82.3 81.7" style="enable-background:new 0 0 82.3 81.7;" xml:space="preserve">
<style type="text/css">
	.st0{fill-rule:evenodd;clip-rule:evenodd;fill:#CE4136;}
	.st1{fill-rule:evenodd;clip-rule:evenodd;fill:#D6443C;}
	.st2{fill-rule:evenodd;clip-rule:evenodd;fill:#EF4538;}
	.st3{fill-rule:evenodd;clip-rule:evenodd;fill:none;stroke:#B43530;stroke-width:2;stroke-miterlimit:10;}
	.st4{fill-rule:evenodd;clip-rule:evenodd;fill:#B3352F;}
	.st5{fill-rule:evenodd;clip-rule:evenodd;fill:#F8FCFD;}
</style>
<polygon id="XMLID_281_" class="st0" points="61.4,40.6 61.4,50.2 51.4,45.4 41.4,40.6 51.4,35.8 61.4,31 "/>
<polygon id="XMLID_280_" class="st1" points="61.4,21.5 61.4,31.1 51.4,26.3 41.4,21.5 51.4,16.7 61.4,11.9 "/>
<path id="XMLID_279_" class="st1" d="M21.5,21.5v9.6l-10-4.8c-2-0.9-3.9-1.9-5.9-2.8c0.4-0.9,0.9-1.8,1.5-2.7c0.6-1,1.2-2,1.9-2.8
	c0.5-0.2,2-1,2.5-1.2c3.3-1.6,6.7-3.2,10-4.8V21.5z"/>
<path id="XMLID_278_" class="st1" d="M21.5,59.8v9.6l-10-4.8c-1.1-0.5-2.1-1-3.2-1.5c-0.5-0.7-1-1.5-1.4-2.3c-0.6-1-1.1-1.9-1.5-2.9
	c2-1,4.1-2,6.1-2.9l10-4.8V59.8z"/>
<polygon id="XMLID_277_" class="st2" points="41.4,11.9 41.4,21.5 31.5,16.7 21.5,11.9 31.5,7.1 41.4,2.3 "/>
<path id="XMLID_276_" class="st1" d="M21.5,6.6c0,1.8,0,3.5,0,5.3c-1.6-0.7-3.2-1.4-4.8-2.1c0.7-0.6,1.5-1.1,2.3-1.7
	C19.8,7.6,20.7,7.1,21.5,6.6z"/>
<path id="XMLID_275_" class="st2" d="M70.7,13.9c1.3,1.4,2.5,2.8,3.4,4.1c-0.9-0.4-1.8-0.8-2.7-1.3l-10-4.8c1.5-0.7,3.1-1.5,4.6-2.2
	C67.5,10.8,69.1,12.2,70.7,13.9z"/>
<path id="XMLID_274_" class="st1" d="M61.4,11.9l-10-4.8l-10-4.8c0.7-0.3,1.3-0.6,2-1c2.9,0.1,7.2,0.7,11.9,2.4
	c4.8,1.8,8.4,4.1,10.7,5.9C64.5,10.5,63,11.2,61.4,11.9z"/>
<polygon id="XMLID_273_" class="st2" points="41.4,11.9 41.4,2.3 51.4,7.1 61.4,11.9 51.4,16.7 41.4,21.5 "/>
<path id="XMLID_272_" class="st1" d="M21.5,6.6c2.1-1.2,4.8-2.4,8-3.4c3.9-1.2,7.3-1.7,10-1.8c0.7,0.3,1.3,0.6,2,1l-10,4.8l-10,4.8
	C21.5,10.2,21.5,8.4,21.5,6.6z"/>
<path id="XMLID_271_" class="st1" d="M66.6,71.8c-2.2,1.7-5.2,3.7-9.1,5.4c-5.1,2.2-9.8,2.9-13,3.2c-1-0.5-2.1-1-3.1-1.5l10-4.8
	l10-4.8C63.2,70.1,64.9,71,66.6,71.8z"/>
<path id="XMLID_270_" class="st1" d="M16.4,71.8c1.7-0.8,3.4-1.6,5.1-2.4l10,4.8l10,4.8c-1,0.5-2,1-3.1,1.5
	c-3.4-0.3-8.4-1.1-13.8-3.6C21.1,75.2,18.4,73.4,16.4,71.8z"/>
<path id="XMLID_269_" class="st2" d="M11.4,14.8c1.1-1.3,2.1-2.2,2.5-2.6c1-0.9,1.9-1.7,2.8-2.4c1.6,0.7,3.2,1.4,4.8,2.1l-10,4.8
	c-0.9,0.4-1.7,0.8-2.6,1.2C9.8,16.7,10.7,15.7,11.4,14.8z"/>
<path id="XMLID_268_" class="st2" d="M11,66.6c1.1,1.3,2.1,2.2,2.7,2.8c1,1,2,1.8,2.7,2.4c1.7-0.8,3.4-1.6,5.1-2.4
	c-3.3-1.6-6.7-3.2-10-4.8c-1.1-0.5-2.1-1-3.2-1.5C9.3,64.5,10.2,65.7,11,66.6z"/>
<polygon id="XMLID_267_" class="st2" points="41.4,69.3 41.4,59.8 51.4,64.5 61.4,69.3 51.4,74.1 41.4,78.9 "/>
<polygon id="XMLID_266_" class="st2" points="41.4,69.3 41.4,78.9 31.5,74.1 21.5,69.3 31.5,64.5 41.4,59.8 "/>
<path id="XMLID_265_" class="st2" d="M71.8,66.6c-1.8,2.1-3.6,3.8-5.3,5.1c-1.8-0.8-3.5-1.6-5.3-2.4l10-4.8c1.2-0.6,2.4-1.1,3.6-1.7
	C73.9,64,73,65.3,71.8,66.6z"/>
<polygon id="XMLID_264_" class="st1" points="61.4,59.8 61.4,69.3 51.4,64.5 41.4,59.8 51.4,55 61.4,50.2 "/>
<polygon id="XMLID_263_" class="st1" points="21.5,59.8 21.5,50.2 31.5,55 41.4,59.8 31.5,64.5 21.5,69.3 "/>
<polygon id="XMLID_262_" class="st1" points="21.5,21.5 21.5,11.9 31.5,16.7 41.4,21.5 31.5,26.3 21.5,31.1 "/>
<path id="XMLID_261_" class="st1" d="M61.4,21.5v-9.6l10,4.8c0.9,0.4,1.7,0.8,2.6,1.3c0.5,0.8,1.1,1.6,1.7,2.5c0.6,1,1.2,2.1,1.7,3
	c-2,0.9-4,1.9-5.9,2.8c-3.3,1.6-6.7,3.2-10,4.8V21.5z"/>
<path id="XMLID_260_" class="st1" d="M61.4,59.8v-9.6l10,4.8c2.1,1,4.1,2,6.2,3c-0.4,0.8-0.8,1.7-1.4,2.7c-0.5,0.8-1,1.6-1.4,2.2
	c-4.5,2.2-8.9,4.3-13.4,6.5V59.8z"/>
<path id="XMLID_259_" class="st2" d="M39.4,1.4c0.7,0,1.4-0.1,2.2-0.1c0.7,0,1.3,0,1.9,0.1c-0.7,0.3-1.4,0.6-2,1
	C40.8,2,40.1,1.7,39.4,1.4z"/>
<path id="XMLID_258_" class="st2" d="M44.6,80.4c-1,0.1-2,0.1-3.1,0.1c-1.1,0-2.1-0.1-3.1-0.2c1-0.5,2.1-1,3.1-1.5
	C42.5,79.4,43.5,79.9,44.6,80.4z"/>
<polygon id="XMLID_257_" class="st0" points="21.5,40.6 21.5,50.2 11.5,45.4 1.5,40.6 11.5,35.8 21.5,31 "/>
<polygon id="XMLID_256_" class="st0" points="21.5,40.6 21.5,31 31.5,35.8 41.4,40.6 31.5,45.4 21.5,50.2 "/>
<polygon id="XMLID_255_" class="st0" points="61.4,40.6 61.4,31 71.4,35.8 81.4,40.6 71.4,45.4 61.4,50.2 "/>
<polygon id="XMLID_254_" class="st2" points="41.4,31 41.4,21.5 51.4,26.3 61.4,31 51.4,35.8 41.4,40.6 "/>
<path id="XMLID_253_" class="st2" d="M2.5,49.9c-0.9-3.6-1.1-6.8-1.1-9.3l10,4.8l10,4.8l-10,4.8c-2,1-4.1,2-6.1,2.9
	C4.4,55.8,3.3,53.1,2.5,49.9z"/>
<path id="XMLID_252_" class="st2" d="M2.7,31.2c0.8-3.1,1.9-5.7,2.9-7.8c2,0.9,3.9,1.9,5.9,2.8l10,4.8l-10,4.8l-10,4.8
	C1.5,38.1,1.8,34.9,2.7,31.2z"/>
<polygon id="XMLID_251_" class="st2" points="41.4,31 41.4,40.6 31.5,35.8 21.5,31 31.5,26.3 41.4,21.5 "/>
<path id="XMLID_250_" class="st2" d="M80.2,31c1,3.8,1.2,7.1,1.2,9.6l-10-4.8l-10-4.8l10-4.8c2-0.9,4-1.9,5.9-2.8
	C78.3,25.4,79.4,27.9,80.2,31z"/>
<path id="XMLID_249_" class="st2" d="M80.4,50.2c-0.8,3.1-1.8,5.8-2.8,7.8c-2.1-1-4.1-2-6.2-3l-10-4.8l10-4.8l10-4.8
	C81.5,43.1,81.3,46.4,80.4,50.2z"/>
<polygon id="XMLID_248_" class="st2" points="41.4,50.2 41.4,40.6 51.4,45.4 61.4,50.2 51.4,55 41.4,59.8 "/>
<polygon id="XMLID_247_" class="st2" points="41.4,50.2 41.4,59.8 31.5,55 21.5,50.2 31.5,45.4 41.4,40.6 "/>
<ellipse id="XMLID_246_" class="st3" cx="41.5" cy="40.9" rx="39.9" ry="39.5"/>
<g id="XMLID_282_">
	<path id="XMLID_292_" class="st4" d="M59.2,53.6c5.3-0.4,11-7.7,10.8-12.9l0-7.1l0-10l-5.9,7.3l0,10.3C64.1,45,63.1,49,59.2,53.6
		L59.2,53.6z"/>
	<g id="XMLID_283_">
		<path id="XMLID_291_" class="st4" d="M44.8,39.2c-1.5,1.9-2.9,3.7-4.4,5.6c0.2,7.3,4.8,13.4,10.7,15c7.7,2,17.2-3.9,18.8-14
			c-2.2,6.8-9.4,10.7-16.1,8.7C47.5,52.6,43.4,45.9,44.8,39.2z"/>
		<g id="XMLID_289_">
			<path id="XMLID_290_" class="st4" d="M17.5,38.7c-0.1-0.8-0.7-8.3,4.9-13.1c3.2-2.7,6.7-3.2,8.2-3.4l7.1,0c3.5,0,7,0,10.4,0
				c-1.5,1.9-3,3.8-4.5,5.7c-4.5,0.1-9.1,0.1-13.6,0.2c-1.9,0-2.7,0.1-3.8,0.4C21.3,29.9,18.7,35.3,17.5,38.7z"/>
		</g>
		<g id="XMLID_284_">
			<g id="XMLID_287_">
				<path id="XMLID_288_" class="st4" d="M17,55.2c0-0.4-0.1-0.9-0.1-1.6c0-2.3-0.1-6.9,2.4-10.3c3.2-4.2,9.1-4.3,10-4.3
					c1.3,0,2.6,0,3.9,0c3.5,0,7,0,10.4,0c-1.5,1.9-3,3.7-4.5,5.6c-5.3,0-9.2,0-10.8,0c-0.3,0-1.1,0-1.9,0.4
					c-0.8,0.3-1.3,0.7-1.6,0.9c0,0-3.8,2.9-3.8,10.7c0,0.1,0,0.8,0,1.7c0,0.5,0,0.9,0,1.4c0,0.8-0.1,0.8-0.1,1.4c0,0.3,0,0.5,0,0.5
					C20.8,61.7,19.9,60.3,17,55.2z"/>
			</g>
			<g id="XMLID_285_">
				<path id="XMLID_286_" class="st4" d="M25,40c-0.2,0.2-0.9,1.1-1,2.4c-0.1,1.5,0.8,2.6,0.9,2.8c-0.5,0.7-1.2,1.8-1.7,3.3
					c-0.6,1.7-0.7,3.2-0.7,4.2c0,3.5,0,6.9,0,10.4c-1.9-1.5-3.8-3-5.7-4.5c-0.1-1.2-0.2-3.1-0.1-5.4c0.3-4.4,0.5-7.8,2.9-10.4
					C20.5,42,22,40.6,25,40z"/>
			</g>
		</g>
	</g>
</g>
<g id="XMLID_235_">
	<path id="XMLID_245_" class="st5" d="M57.2,51.6c5.3-0.4,11-7.7,10.8-12.9l0-7.1l0-10l-5.9,7.3l0,10.3C62.2,43,61.1,47,57.2,51.6
		L57.2,51.6z"/>
	<g id="XMLID_236_">
		<path id="XMLID_244_" class="st5" d="M42.8,37.2c-1.5,1.9-2.9,3.7-4.4,5.6c0.2,7.3,4.8,13.4,10.7,15c7.7,2,17.2-3.9,18.8-14
			c-2.2,6.8-9.4,10.7-16.1,8.7C45.5,50.6,41.5,43.9,42.8,37.2z"/>
		<g id="XMLID_242_">
			<path id="XMLID_243_" class="st5" d="M15.5,36.7c-0.1-0.8-0.7-8.3,4.9-13.1c3.2-2.7,6.7-3.2,8.2-3.4l7.1,0c3.5,0,7,0,10.4,0
				c-1.5,1.9-3,3.8-4.5,5.7c-4.5,0.1-9.1,0.1-13.6,0.2c-1.9,0-2.7,0.1-3.8,0.4C19.4,27.9,16.8,33.3,15.5,36.7z"/>
		</g>
		<g id="XMLID_237_">
			<g id="XMLID_240_">
				<path id="XMLID_241_" class="st5" d="M15.1,53.2c0-0.4-0.1-0.9-0.1-1.6c0-2.3-0.1-6.9,2.4-10.3c3.2-4.2,9.1-4.3,10-4.3
					c1.3,0,2.6,0,3.9,0c3.5,0,7,0,10.4,0c-1.5,1.9-3,3.7-4.5,5.6c-5.3,0-9.2,0-10.8,0c-0.3,0-1.1,0-1.9,0.4
					c-0.8,0.3-1.3,0.7-1.6,0.9c0,0-3.8,2.9-3.8,10.7c0,0.1,0,0.8,0,1.7c0,0.5,0,0.9,0,1.4c0,0.8-0.1,0.8-0.1,1.4c0,0.3,0,0.5,0,0.5
					C18.8,59.7,17.9,58.3,15.1,53.2z"/>
			</g>
			<g id="XMLID_238_">
				<path id="XMLID_239_" class="st5" d="M23,38c-0.2,0.2-0.9,1.1-1,2.4c-0.1,1.5,0.8,2.6,0.9,2.8c-0.5,0.7-1.2,1.8-1.7,3.3
					c-0.6,1.7-0.7,3.2-0.7,4.2c0,3.5,0,6.9,0,10.4c-1.9-1.5-3.8-3-5.7-4.5c-0.1-1.2-0.2-3.1-0.1-5.4c0.3-4.4,0.5-7.8,2.9-10.4
					C18.5,40,20.1,38.7,23,38z"/>
			</g>
		</g>
	</g>
</g>
</svg>
