<?xml version="1.0" encoding="utf-8"?>
<!-- Generator: Adobe Illustrator 19.0.1, SVG Export Plug-In . SVG Version: 6.00 Build 0)  -->
<svg version="1.1" id="Слой_1" xmlns="http://www.w3.org/2000/svg" xmlns:xlink="http://www.w3.org/1999/xlink" x="0px" y="0px"
	 viewBox="0 0 431.2 83.3" style="enable-background:new 0 0 431.2 83.3;" xml:space="preserve">
<style type="text/css">
	.st0{fill-rule:evenodd;clip-rule:evenodd;fill:#50ADD6;}
	.st1{fill-rule:evenodd;clip-rule:evenodd;fill:#6BBEE0;}
	.st2{fill-rule:evenodd;clip-rule:evenodd;fill:#77C3E8;}
	.st3{fill-rule:evenodd;clip-rule:evenodd;fill:#79BCDD;}
	.st4{fill-rule:evenodd;clip-rule:evenodd;fill:none;stroke:#56A6CA;stroke-miterlimit:10;}
	.st5{fill-rule:evenodd;clip-rule:evenodd;fill:#456A7E;}
	.st6{fill-rule:evenodd;clip-rule:evenodd;fill:#FAFCFE;}
	.st7{fill:#FAFCFE;}
	.st8{fill-rule:evenodd;clip-rule:evenodd;fill:#D76349;}
</style>
<polygon id="XMLID_93_" class="st0" points="62.3,42.9 62.3,52.4 52.3,47.7 42.3,42.9 52.3,38.1 62.3,33.3 "/>
<polygon id="XMLID_92_" class="st1" points="62.3,23.7 62.3,33.3 52.3,28.5 42.3,23.7 52.3,19 62.3,14.2 "/>
<path id="XMLID_91_" class="st1" d="M22.4,23.7v9.6l-10-4.8c-2-0.9-3.9-1.9-5.9-2.8C6.9,24.8,7.4,23.9,8,23c0.6-1,1.2-2,1.9-2.8
	c0.5-0.2,2-1,2.5-1.2c3.3-1.6,6.7-3.2,10-4.8V23.7z"/>
<path id="XMLID_90_" class="st1" d="M22.4,62v9.6l-10-4.8c-1.1-0.5-2.1-1-3.2-1.5c-0.5-0.7-1-1.5-1.4-2.3c-0.6-1-1.1-1.9-1.5-2.9
	c2-1,4.1-2,6.1-2.9l10-4.8V62z"/>
<polygon id="XMLID_89_" class="st2" points="42.3,14.2 42.3,23.7 32.4,19 22.4,14.2 32.4,9.4 42.3,4.6 "/>
<path id="XMLID_88_" class="st1" d="M22.4,8.9c0,1.8,0,3.5,0,5.3c-1.6-0.7-3.2-1.4-4.8-2.1c0.7-0.6,1.5-1.1,2.3-1.7
	C20.7,9.9,21.6,9.3,22.4,8.9z"/>
<path id="XMLID_87_" class="st2" d="M71.6,16.1c1.3,1.4,2.5,2.8,3.4,4.1c-0.9-0.4-1.8-0.8-2.7-1.3l-10-4.8c1.5-0.7,3.1-1.5,4.6-2.2
	C68.4,13.1,70,14.4,71.6,16.1z"/>
<path id="XMLID_86_" class="st1" d="M62.3,14.2l-10-4.8l-10-4.8c0.7-0.3,1.3-0.6,2-1c2.9,0.1,7.2,0.7,11.9,2.4
	c4.8,1.8,8.4,4.1,10.7,5.9C65.4,12.7,63.9,13.4,62.3,14.2z"/>
<polygon id="XMLID_85_" class="st2" points="42.3,14.2 42.3,4.6 52.3,9.4 62.3,14.2 52.3,19 42.3,23.7 "/>
<path id="XMLID_84_" class="st1" d="M22.4,8.9c2.1-1.2,4.8-2.4,8-3.4c3.9-1.2,7.3-1.7,10-1.8c0.7,0.3,1.3,0.6,2,1l-10,4.8l-10,4.8
	C22.4,12.4,22.4,10.7,22.4,8.9z"/>
<path id="XMLID_83_" class="st1" d="M67.5,74.1c-2.2,1.7-5.2,3.7-9.1,5.4c-5.1,2.2-9.8,2.9-13,3.2c-1-0.5-2.1-1-3.1-1.5l10-4.8
	l10-4.8C64.1,72.4,65.8,73.2,67.5,74.1z"/>
<path id="XMLID_82_" class="st1" d="M17.3,74c1.7-0.8,3.4-1.6,5.1-2.4l10,4.8l10,4.8c-1,0.5-2,1-3.1,1.5c-3.4-0.3-8.4-1.1-13.8-3.6
	C22,77.5,19.3,75.6,17.3,74z"/>
<path id="XMLID_81_" class="st2" d="M12.3,17.1c1.1-1.3,2.1-2.2,2.5-2.6c1-0.9,1.9-1.7,2.8-2.4c1.6,0.7,3.2,1.4,4.8,2.1l-10,4.8
	c-0.9,0.4-1.7,0.8-2.6,1.2C10.7,19,11.6,17.9,12.3,17.1z"/>
<path id="XMLID_80_" class="st2" d="M11.9,68.8c1.1,1.3,2.1,2.2,2.7,2.8c1,1,2,1.8,2.7,2.4c1.7-0.8,3.4-1.6,5.1-2.4
	c-3.3-1.6-6.7-3.2-10-4.8c-1.1-0.5-2.1-1-3.2-1.5C10.2,66.7,11.1,67.9,11.9,68.8z"/>
<polygon id="XMLID_79_" class="st2" points="42.3,71.6 42.3,62 52.3,66.8 62.3,71.6 52.3,76.4 42.3,81.2 "/>
<polygon id="XMLID_78_" class="st2" points="42.3,71.6 42.3,81.2 32.4,76.4 22.4,71.6 32.4,66.8 42.3,62 "/>
<path id="XMLID_77_" class="st2" d="M72.7,68.9c-1.8,2.1-3.6,3.8-5.3,5.1c-1.8-0.8-3.5-1.6-5.3-2.4l10-4.8c1.2-0.6,2.4-1.1,3.6-1.7
	C74.8,66.3,73.9,67.6,72.7,68.9z"/>
<polygon id="XMLID_76_" class="st1" points="62.3,62 62.3,71.6 52.3,66.8 42.3,62 52.3,57.2 62.3,52.4 "/>
<polygon id="XMLID_75_" class="st1" points="22.4,62 22.4,52.4 32.4,57.2 42.3,62 32.4,66.8 22.4,71.6 "/>
<polygon id="XMLID_74_" class="st1" points="22.4,23.7 22.4,14.2 32.4,19 42.3,23.7 32.4,28.5 22.4,33.3 "/>
<path id="XMLID_73_" class="st1" d="M62.3,23.7v-9.6l10,4.8c0.9,0.4,1.7,0.8,2.6,1.3c0.5,0.8,1.1,1.6,1.7,2.5c0.6,1,1.2,2.1,1.7,3
	c-2,0.9-4,1.9-5.9,2.8c-3.3,1.6-6.7,3.2-10,4.8V23.7z"/>
<path id="XMLID_72_" class="st1" d="M62.3,62v-9.6l10,4.8c2.1,1,4.1,2,6.2,3c-0.4,0.8-0.8,1.7-1.4,2.7c-0.5,0.8-1,1.6-1.4,2.2
	c-4.5,2.2-8.9,4.3-13.4,6.5V62z"/>
<path id="XMLID_71_" class="st3" d="M40.3,3.6c0.7,0,1.4-0.1,2.2-0.1c0.7,0,1.3,0,1.9,0.1c-0.7,0.3-1.4,0.6-2,1
	C41.7,4.3,41,4,40.3,3.6z"/>
<path id="XMLID_70_" class="st3" d="M45.5,82.7c-1,0.1-2,0.1-3.1,0.1c-1.1,0-2.1-0.1-3.1-0.2c1-0.5,2.1-1,3.1-1.5
	C43.4,81.7,44.4,82.2,45.5,82.7z"/>
<polygon id="XMLID_69_" class="st0" points="22.4,42.9 22.4,52.4 12.4,47.7 2.4,42.9 12.4,38.1 22.4,33.3 "/>
<polygon id="XMLID_68_" class="st0" points="22.4,42.9 22.4,33.3 32.4,38.1 42.3,42.9 32.4,47.7 22.4,52.4 "/>
<polygon id="XMLID_67_" class="st0" points="62.3,42.9 62.3,33.3 72.3,38.1 82.3,42.9 72.3,47.7 62.3,52.4 "/>
<polygon id="XMLID_66_" class="st2" points="42.3,33.3 42.3,23.7 52.3,28.5 62.3,33.3 52.3,38.1 42.3,42.9 "/>
<path id="XMLID_65_" class="st2" d="M3.4,52.2c-0.9-3.6-1.1-6.8-1.1-9.3l10,4.8l10,4.8l-10,4.8c-2,1-4.1,2-6.1,2.9
	C5.3,58.1,4.2,55.4,3.4,52.2z"/>
<path id="XMLID_64_" class="st2" d="M3.6,33.5c0.8-3.1,1.9-5.7,2.9-7.8c2,0.9,3.9,1.9,5.9,2.8l10,4.8l-10,4.8l-10,4.8
	C2.4,40.4,2.7,37.1,3.6,33.5z"/>
<polygon id="XMLID_63_" class="st2" points="42.3,33.3 42.3,42.9 32.4,38.1 22.4,33.3 32.4,28.5 42.3,23.7 "/>
<path id="XMLID_62_" class="st2" d="M81.1,33.3c1,3.8,1.2,7.1,1.2,9.6l-10-4.8l-10-4.8l10-4.8c2-0.9,4-1.9,5.9-2.8
	C79.2,27.7,80.3,30.2,81.1,33.3z"/>
<path id="XMLID_61_" class="st2" d="M81.3,52.4c-0.8,3.1-1.8,5.8-2.8,7.8c-2.1-1-4.1-2-6.2-3l-10-4.8l10-4.8l10-4.8
	C82.4,45.4,82.2,48.7,81.3,52.4z"/>
<polygon id="XMLID_60_" class="st2" points="42.3,52.4 42.3,42.9 52.3,47.7 62.3,52.4 52.3,57.2 42.3,62 "/>
<polygon id="XMLID_59_" class="st2" points="42.3,52.4 42.3,62 32.4,57.2 22.4,52.4 32.4,47.7 42.3,42.9 "/>
<ellipse id="XMLID_58_" class="st4" cx="42.4" cy="43.2" rx="39.9" ry="39.5"/>
<g id="XMLID_47_">
	<path id="XMLID_57_" class="st5" d="M60.1,55.8c5.3-0.4,11-7.7,10.8-12.9l0-7.1l0-10L65,33.2l0,10.3C65,47.2,64,51.2,60.1,55.8
		L60.1,55.8z"/>
	<g id="XMLID_48_">
		<path id="XMLID_56_" class="st5" d="M45.7,41.5c-1.5,1.9-2.9,3.7-4.4,5.6c0.2,7.3,4.8,13.4,10.7,15c7.7,2,17.2-3.9,18.8-14
			c-2.2,6.8-9.4,10.7-16.1,8.7C48.4,54.9,44.3,48.2,45.7,41.5z"/>
		<g id="XMLID_54_">
			<path id="XMLID_55_" class="st5" d="M18.4,41c-0.1-0.8-0.7-8.3,4.9-13.1c3.2-2.7,6.7-3.2,8.2-3.4l7.1,0c3.5,0,7,0,10.4,0
				c-1.5,1.9-3,3.8-4.5,5.7c-4.5,0.1-9.1,0.1-13.6,0.2c-1.9,0-2.7,0.1-3.8,0.4C22.2,32.2,19.6,37.5,18.4,41z"/>
		</g>
		<g id="XMLID_49_">
			<g id="XMLID_52_">
				<path id="XMLID_53_" class="st5" d="M17.9,57.5c0-0.4-0.1-0.9-0.1-1.6c0-2.3-0.1-6.9,2.4-10.3c3.2-4.2,9.1-4.3,10-4.3
					c1.3,0,2.6,0,3.9,0c3.5,0,7,0,10.4,0c-1.5,1.9-3,3.7-4.5,5.6c-5.3,0-9.2,0-10.8,0c-0.3,0-1.1,0-1.9,0.4
					c-0.8,0.3-1.3,0.7-1.6,0.9c0,0-3.8,2.9-3.8,10.7c0,0.1,0,0.8,0,1.7c0,0.5,0,0.9,0,1.4c0,0.8-0.1,0.8-0.1,1.4c0,0.3,0,0.5,0,0.5
					C21.7,64,20.8,62.5,17.9,57.5z"/>
			</g>
			<g id="XMLID_50_">
				<path id="XMLID_51_" class="st5" d="M25.9,42.3c-0.2,0.2-0.9,1.1-1,2.4c-0.1,1.5,0.8,2.6,0.9,2.8c-0.5,0.7-1.2,1.8-1.7,3.3
					c-0.6,1.7-0.7,3.2-0.7,4.2c0,3.5,0,6.9,0,10.4c-1.9-1.5-3.8-3-5.7-4.5c-0.1-1.2-0.2-3.1-0.1-5.4C18,51,18.3,47.6,20.7,45
					C21.4,44.3,22.9,42.9,25.9,42.3z"/>
			</g>
		</g>
	</g>
</g>
<path id="XMLID_29_" class="st6" d="M100.1,50.7V32.2c0-3.2,0.8-5.5,2.4-7c1.6-1.5,4-2.3,7.3-2.3h4.9v6.5h-4.8c-2,0-2.9,0.9-2.9,2.8
	v1.8h7.7v6.5H107v10.1H100.1L100.1,50.7z M285.1,22.9h6.9v17.4c0,3.1-0.8,5.6-2.4,7.5c-1.8,2.2-4.4,3.3-7.9,3.3
	c-2.4,0-4.6-0.9-6.5-2.6c-2.1-1.9-3.2-4.4-3.2-7.4c0-0.3,0-0.6,0.1-1c0-0.3,0.1-0.7,0.3-1.2l6.4,1.7c0,2.5,1,3.7,3.1,3.7
	c1.1,0,1.9-0.4,2.4-1.1c0.5-0.8,0.8-1.9,0.8-3.5V22.9L285.1,22.9z M118.2,50.7V34.3c0-3.6,1-6.5,2.9-8.6c1.9-2.1,4.5-3.2,7.6-3.2
	c3.2,0,5.7,1.1,7.7,3.2c2,2.1,2.9,5,2.9,8.7v16.4h-6.9v-7.2h-7.4v7.2H118.2L118.2,50.7z M128.8,29.2c-2.5,0-3.7,1.6-3.7,4.7V37h7.4
	v-3.4c0-1.3-0.3-2.4-1-3.2C130.8,29.6,129.9,29.2,128.8,29.2L128.8,29.2z M143,22.9h17.3v6.1h-10.4v11.7c0,1.1,0.3,2,0.9,2.7
	c0.6,0.7,1.3,1,2.2,1c1.1,0,1.9-0.3,2.5-1c0.5-0.6,0.7-1.4,0.7-2.3c0-0.9-0.3-1.7-0.9-2.3c-0.6-0.6-1.3-1-2.1-1
	c-0.5,0-0.9,0.1-1.3,0.2c-0.3,0.1-0.6,0.3-0.7,0.5l1.3-7.4c3.2,0,5.7,1,7.7,2.9c2,1.9,2.9,4.3,2.9,7.2c0,2.7-1,5-2.9,6.9
	c-1.9,1.9-4.2,2.9-7,2.9c-3.1,0-5.5-1-7.4-3c-1.9-2-2.8-4.5-2.8-7.4V22.9L143,22.9z M165.7,50.7V32.8c0-3,0.9-5.5,2.8-7.4
	c1.8-2,4.3-3,7.4-3c2.7,0,5,1,6.9,2.9c2,1.9,2.9,4.2,2.9,6.9c0,2.9-1,5.3-2.9,7.2c-2,1.9-4.5,2.9-7.7,2.9l-1.3-7.4
	c0.2,0.2,0.4,0.4,0.7,0.5c0.3,0.1,0.7,0.2,1.3,0.2c0.8,0,1.6-0.3,2.1-0.9c0.6-0.6,0.9-1.4,0.9-2.4c0-1-0.2-1.8-0.7-2.3
	c-0.5-0.7-1.4-1-2.5-1c-0.8,0-1.5,0.3-2.2,1c-0.6,0.7-0.9,1.6-0.9,2.7v17.9H165.7L165.7,50.7z M188.5,22.9h6.9v16.8
	c0,3.1,1.2,4.7,3.7,4.7c1.2,0,2.1-0.4,2.8-1.2c0.6-0.8,1-2,1-3.5V22.9h6.8v27.7h-6.8v-1.8c-0.3,0.6-0.9,1.2-1.8,1.6
	c-0.8,0.4-1.8,0.7-2.9,0.7c-2.6,0-4.8-1-6.6-3c-2-2.2-3-5.1-3-8.8V22.9L188.5,22.9z M213.5,22.9h6.9V34l7.4-11.1h7.5l-8,11.1
	c1.8,0,3.3,0.6,4.5,1.9c1,1.1,1.5,2.5,1.5,4v10.8h-6.8v-9.4c0-0.9-0.3-1.8-0.8-2.4c-0.6-0.7-1.3-1-2.3-1c-0.9,0-1.6,0.3-2.1,0.9
	c-0.5,0.6-0.8,1.4-0.8,2.4v9.4h-6.9V22.9L213.5,22.9z M237.2,50.7V34.3c0-3.6,1-6.5,2.9-8.6c1.9-2.1,4.5-3.2,7.6-3.2
	c3.2,0,5.7,1.1,7.7,3.2c2,2.1,2.9,5,2.9,8.7v16.4h-6.9v-7.2h-7.4v7.2H237.2L237.2,50.7z M247.8,29.2c-2.5,0-3.7,1.6-3.7,4.7V37h7.4
	v-3.4c0-1.3-0.3-2.4-1-3.2C249.8,29.6,248.9,29.2,247.8,29.2L247.8,29.2z M295.7,50.7V34.3c0-3.6,1-6.5,2.9-8.6
	c1.9-2.1,4.5-3.2,7.6-3.2c3.2,0,5.7,1.1,7.7,3.2c2,2.1,2.9,5,2.9,8.7v16.4H310v-7.2h-7.4v7.2H295.7L295.7,50.7z M306.3,29.2
	c-2.5,0-3.7,1.6-3.7,4.7V37h7.4v-3.4c0-1.3-0.3-2.4-1-3.2C308.3,29.6,307.4,29.2,306.3,29.2L306.3,29.2z M344.3,34.3v16.4h-6.8V33.9
	c0-3.1-1.2-4.7-3.7-4.7c-2.5,0-3.7,1.6-3.7,4.7v9c0,2.7-0.5,4.7-1.5,5.9c-1.1,1.3-3.1,1.9-5.9,1.9h-3.1v-5.5c1.3,0,2.2-0.3,2.8-0.8
	c0.6-0.6,0.9-1.5,0.9-3v-7.1c0-3.6,1-6.5,2.9-8.6c1.9-2.1,4.5-3.2,7.6-3.2c3.1,0,5.7,1.1,7.6,3.2C343.3,27.8,344.3,30.7,344.3,34.3
	L344.3,34.3z M354.5,33.6h3.5c0.7-3.2,2.4-5.9,5-8c2.6-2.1,5.6-3.2,8.9-3.2c4,0,7.3,1.4,10.1,4.2c2.8,2.8,4.1,6.2,4.1,10.1
	c0,4-1.4,7.4-4.1,10.2c-2.7,2.8-6.1,4.2-10.1,4.2c-3.2,0-6.1-1-8.7-3c-2.6-2-4.3-4.6-5.1-7.8h-3.6v10.4h-6.9V22.9h6.9V33.6
	L354.5,33.6z M364.8,36.7c0,2.1,0.7,3.9,2.1,5.3c1.4,1.5,3.1,2.2,5.1,2.2c2,0,3.7-0.7,5.1-2.2c1.4-1.5,2.1-3.2,2.1-5.3
	c0-2.1-0.7-3.8-2.1-5.3c-1.4-1.5-3.1-2.2-5.1-2.2c-2,0-3.7,0.7-5.1,2.2C365.5,32.9,364.8,34.6,364.8,36.7L364.8,36.7z M392,22.9
	l6.8,0c1.8,0,3.4,0.6,4.9,1.9c1.5,1.3,2.2,2.7,2.2,4.2c0,1.4-0.2,2.6-0.6,3.4c-0.4,0.8-1,1.5-1.9,1.9c1.4,1.1,2.3,2.1,2.8,3.2
	c0.5,1.1,0.7,2.5,0.7,4.4c0,2.4-0.8,4.4-2.3,6.1c-1.8,2-4.3,3-7.5,3c-2.5,0-4.6-0.6-6.2-1.7c-0.9-0.6-1.8-1.6-2.7-2.9l4.5-4.4
	c1.4,1.8,2.9,2.8,4.4,2.8c0.9,0,1.7-0.2,2.2-0.7c0.5-0.5,0.8-1.2,0.8-2.2c0-1-0.3-1.7-0.9-2.2c-0.6-0.5-1.4-0.7-2.6-0.7h-2.3v-5.3
	h2.2c0.9,0,1.6-0.2,2-0.7c0.4-0.5,0.7-1.1,0.7-1.8c0-0.7-0.3-1.2-0.8-1.7c-0.5-0.4-1.2-0.7-2.2-0.7H392V22.9L392,22.9z M409.9,22.9
	h6.9v16.8c0,3.1,1.2,4.7,3.7,4.7c1.2,0,2.1-0.4,2.8-1.2c0.6-0.8,1-2,1-3.5V22.9h6.8v27.7h-6.8v-1.8c-0.3,0.6-0.9,1.2-1.8,1.6
	c-0.8,0.4-1.8,0.7-2.9,0.7c-2.6,0-4.8-1-6.6-3c-2-2.2-3-5.1-3-8.8V22.9z"/>
<line id="XMLID_28_" class="st7" x1="90.1" y1="3.1" x2="90.1" y2="83.3"/>
<g id="XMLID_148_">
	<path id="XMLID_149_" class="st7" d="M101.6,55.4v6.4h-1.4v-6.5c0-0.6,0.1-1.1,0.2-1.6c0.2-0.5,0.4-0.9,0.7-1.3
		c0.3-0.4,0.7-0.6,1.1-0.8c0.4-0.2,1-0.3,1.5-0.3c0.5,0,1,0.1,1.5,0.3s0.8,0.4,1.1,0.8c0.3,0.3,0.6,0.8,0.7,1.3
		c0.2,0.5,0.3,1.1,0.3,1.7v6.5H106v-6.4c0-0.9-0.2-1.6-0.6-2.1c-0.4-0.5-0.9-0.7-1.6-0.7s-1.3,0.2-1.6,0.7
		C101.8,53.8,101.6,54.5,101.6,55.4z"/>
	<path id="XMLID_151_" class="st7" d="M110.3,58.3V65H109v-6.2c0-0.5,0-0.9,0-1.2c0-0.3,0.1-0.7,0.3-1.1c0.3-0.6,0.7-1.1,1.3-1.4
		c0.6-0.3,1.2-0.5,1.9-0.5c0.5,0,1,0.1,1.4,0.3c0.4,0.2,0.8,0.4,1.1,0.8c0.3,0.3,0.6,0.7,0.7,1.2c0.2,0.4,0.3,0.9,0.3,1.5
		c0,0.5-0.1,1-0.3,1.4c-0.2,0.4-0.4,0.8-0.7,1.2c-0.3,0.3-0.7,0.6-1.1,0.8c-0.4,0.2-0.9,0.3-1.4,0.3c-0.5,0-1-0.1-1.4-0.2l-0.5-1.6
		c0.6,0.4,1.2,0.6,1.8,0.6c0.7,0,1.2-0.2,1.7-0.7c0.4-0.5,0.7-1,0.7-1.8c0-0.8-0.2-1.4-0.7-1.8c-0.4-0.5-1-0.7-1.6-0.7
		c-0.7,0-1.2,0.2-1.6,0.7C110.5,56.9,110.3,57.5,110.3,58.3z"/>
	<path id="XMLID_154_" class="st7" d="M120.6,54.6c0.5,0,1,0.1,1.4,0.3s0.8,0.5,1.1,0.8c0.3,0.3,0.6,0.7,0.8,1.2s0.3,0.9,0.3,1.4
		c0,0.5-0.1,1-0.3,1.4c-0.2,0.4-0.4,0.8-0.8,1.2c-0.3,0.3-0.7,0.6-1.1,0.8c-0.4,0.2-0.9,0.3-1.4,0.3c-0.5,0-1-0.1-1.4-0.3
		c-0.4-0.2-0.8-0.5-1.1-0.8c-0.3-0.3-0.6-0.7-0.8-1.2c-0.2-0.4-0.3-0.9-0.3-1.4s0.1-0.9,0.3-1.4c0.2-0.4,0.4-0.8,0.8-1.2
		s0.7-0.6,1.1-0.8S120.1,54.6,120.6,54.6z M120.6,55.8c-0.3,0-0.6,0.1-0.9,0.2c-0.3,0.1-0.5,0.3-0.7,0.5c-0.2,0.2-0.4,0.5-0.5,0.8
		c-0.1,0.3-0.2,0.6-0.2,0.9c0,0.3,0.1,0.6,0.2,0.9s0.3,0.6,0.5,0.8c0.2,0.2,0.4,0.4,0.7,0.5c0.3,0.1,0.6,0.2,0.9,0.2
		c0.3,0,0.6-0.1,0.9-0.2c0.3-0.1,0.5-0.3,0.7-0.5c0.2-0.2,0.4-0.5,0.5-0.8c0.1-0.3,0.2-0.6,0.2-1c0-0.3-0.1-0.7-0.2-1
		c-0.1-0.3-0.3-0.6-0.5-0.8c-0.2-0.2-0.4-0.4-0.7-0.5C121.2,55.9,120.9,55.8,120.6,55.8z"/>
	<path id="XMLID_157_" class="st7" d="M130.1,58.9v-4.2h1.2v7.1h-1.2v-0.6c-0.4,0.4-1,0.7-1.8,0.7c-1,0-1.7-0.3-2.2-0.8
		c-0.5-0.6-0.8-1.3-0.8-2.3v-4.1h1.2v4.1c0,0.5,0.2,1,0.5,1.3c0.3,0.4,0.7,0.6,1.3,0.6c0.5,0,1-0.2,1.3-0.6
		C130,59.8,130.1,59.4,130.1,58.9z"/>
	<path id="XMLID_159_" class="st7" d="M136.3,56.2h-2.1V55h2.2c0.4,0,0.8,0,1.2,0.1c0.4,0.1,0.7,0.2,0.9,0.4
		c0.3,0.2,0.5,0.4,0.6,0.7c0.1,0.3,0.2,0.6,0.2,1c0,1.1-0.4,1.8-1.2,2c0.2,0,0.4,0.1,0.7,0.2c0.2,0.1,0.4,0.3,0.6,0.6
		c0.2,0.2,0.3,0.5,0.4,0.8s0.2,0.6,0.2,0.9c0,0.4-0.1,0.9-0.2,1.3c-0.1,0.4-0.4,0.8-0.6,1.1c-0.3,0.3-0.7,0.6-1.1,0.8
		c-0.5,0.2-1,0.3-1.6,0.3c-0.5,0-1-0.1-1.4-0.3c-0.4-0.2-0.8-0.5-1.1-0.8c-0.3-0.3-0.5-0.7-0.7-1.2c-0.2-0.4-0.2-0.9-0.2-1.4h1.3
		c0,0.4,0,0.7,0.2,1s0.3,0.6,0.5,0.8s0.4,0.4,0.7,0.5c0.3,0.1,0.5,0.2,0.8,0.2c0.7,0,1.3-0.2,1.7-0.6c0.4-0.4,0.6-0.9,0.6-1.7
		c0-0.3-0.1-0.5-0.2-0.7c-0.1-0.2-0.3-0.4-0.5-0.6c-0.2-0.2-0.4-0.3-0.7-0.4c-0.3-0.1-0.6-0.2-0.9-0.1c-0.2,0-0.4,0-0.6,0.1l0.4-1.2
		c1.2,0,1.8-0.4,1.8-1.2c0-0.4-0.2-0.8-0.5-1C137.2,56.3,136.8,56.2,136.3,56.2z"/>
	<path id="XMLID_161_" class="st7" d="M141.3,58.4v-7h3.7c0.5,0,0.9,0.1,1.2,0.2s0.6,0.3,0.8,0.5c0.2,0.2,0.4,0.4,0.5,0.7
		s0.1,0.5,0.1,0.7c0,0.4-0.1,0.8-0.2,1.2c-0.1,0.4-0.4,0.6-0.7,0.8c0.3,0.1,0.5,0.2,0.7,0.3c0.2,0.2,0.4,0.4,0.5,0.6
		s0.2,0.5,0.3,0.8c0.1,0.3,0.1,0.6,0.1,0.9c0,0.5-0.1,1-0.3,1.5s-0.4,0.8-0.8,1.2c-0.3,0.3-0.7,0.6-1.1,0.8
		c-0.4,0.2-0.9,0.3-1.4,0.3c-0.5,0-0.9-0.1-1.4-0.3c-0.4-0.2-0.8-0.4-1.1-0.7c-0.3-0.3-0.6-0.7-0.8-1.1S141.3,58.9,141.3,58.4z
		 M144.8,52.7h-2.3V58c0,0.8,0.2,1.5,0.5,2c0.4,0.5,0.9,0.8,1.7,0.8c0.4,0,0.7-0.1,1-0.2c0.3-0.1,0.5-0.3,0.7-0.5
		c0.2-0.2,0.3-0.5,0.4-0.8s0.2-0.6,0.2-1c0-0.3,0-0.6-0.2-0.8s-0.3-0.5-0.5-0.7c-0.2-0.2-0.4-0.4-0.7-0.5c-0.3-0.1-0.6-0.2-0.9-0.2
		c-0.3,0-0.6,0.1-1,0.2s-0.7,0.2-0.9,0.4l0.4-1.4c0.5-0.3,1.1-0.4,1.8-0.4c0.3,0,0.6-0.1,0.8-0.3s0.4-0.5,0.4-0.8
		C146.4,53,145.9,52.7,144.8,52.7z"/>
	<path id="XMLID_164_" class="st7" d="M153.1,54.6c0.5,0,1,0.1,1.4,0.3s0.8,0.5,1.1,0.8c0.3,0.3,0.6,0.7,0.8,1.2s0.3,0.9,0.3,1.4
		c0,0.5-0.1,1-0.3,1.4c-0.2,0.4-0.4,0.8-0.8,1.2c-0.3,0.3-0.7,0.6-1.1,0.8c-0.4,0.2-0.9,0.3-1.4,0.3c-0.5,0-1-0.1-1.4-0.3
		c-0.4-0.2-0.8-0.5-1.1-0.8c-0.3-0.3-0.6-0.7-0.8-1.2c-0.2-0.4-0.3-0.9-0.3-1.4s0.1-0.9,0.3-1.4c0.2-0.4,0.4-0.8,0.8-1.2
		s0.7-0.6,1.1-0.8S152.6,54.6,153.1,54.6z M153.1,55.8c-0.3,0-0.6,0.1-0.9,0.2c-0.3,0.1-0.5,0.3-0.7,0.5c-0.2,0.2-0.4,0.5-0.5,0.8
		c-0.1,0.3-0.2,0.6-0.2,0.9c0,0.3,0.1,0.6,0.2,0.9s0.3,0.6,0.5,0.8c0.2,0.2,0.4,0.4,0.7,0.5c0.3,0.1,0.6,0.2,0.9,0.2
		c0.3,0,0.6-0.1,0.9-0.2c0.3-0.1,0.5-0.3,0.7-0.5c0.2-0.2,0.4-0.5,0.5-0.8c0.1-0.3,0.2-0.6,0.2-1c0-0.3-0.1-0.7-0.2-1
		c-0.1-0.3-0.3-0.6-0.5-0.8c-0.2-0.2-0.4-0.4-0.7-0.5C153.7,55.9,153.4,55.8,153.1,55.8z"/>
	<path id="XMLID_167_" class="st7" d="M163.7,58.3v-3.4c0-0.8-0.2-1.3-0.6-1.7c-0.4-0.3-0.9-0.5-1.7-0.5c-0.2,0-0.5,0-0.7,0.1
		c-0.3,0-0.6,0.1-0.9,0.1c-0.3,0.1-0.6,0.1-0.9,0.2c-0.3,0.1-0.5,0.2-0.8,0.2l0.2-1.3c0.5-0.2,1-0.3,1.5-0.4
		c0.5-0.1,1.1-0.1,1.7-0.1c0.5,0,0.9,0.1,1.3,0.2c0.4,0.1,0.7,0.3,1,0.6c0.3,0.3,0.5,0.6,0.7,1c0.2,0.4,0.3,0.9,0.3,1.6l0,2.8
		c0,0.5,0,0.9-0.1,1.3c0,0.4-0.1,0.7-0.3,1.1c-0.3,0.6-0.7,1.1-1.3,1.4c-0.6,0.3-1.2,0.5-1.9,0.5c-0.5,0-1-0.1-1.4-0.3
		c-0.4-0.2-0.8-0.4-1.1-0.8c-0.3-0.3-0.6-0.7-0.7-1.2c-0.2-0.4-0.3-0.9-0.3-1.5c0-0.5,0.1-1,0.3-1.5c0.2-0.4,0.4-0.8,0.8-1.2
		c0.3-0.3,0.7-0.6,1.1-0.7c0.4-0.2,0.9-0.3,1.3-0.3c0.3,0,0.5,0,0.8,0.1c0.3,0.1,0.5,0.1,0.6,0.2l0.5,1.6c-0.5-0.4-1.1-0.6-1.8-0.6
		c-0.7,0-1.2,0.2-1.7,0.7c-0.4,0.5-0.7,1.1-0.7,1.8c0,0.7,0.2,1.3,0.6,1.8c0.4,0.5,1,0.7,1.6,0.7c0.7,0,1.2-0.2,1.6-0.7
		S163.7,59,163.7,58.3z"/>
	<path id="XMLID_169_" class="st7" d="M166.1,58.3c0-0.5,0.1-0.9,0.3-1.4s0.4-0.8,0.8-1.2c0.3-0.3,0.7-0.6,1.1-0.8
		c0.4-0.2,0.9-0.3,1.4-0.3c1.2,0,2.1,0.5,2.9,1.6l-0.9,0.9c-0.2-0.4-0.5-0.7-0.8-0.9c-0.4-0.2-0.7-0.3-1.2-0.3
		c-0.3,0-0.6,0.1-0.9,0.2s-0.5,0.3-0.7,0.5s-0.4,0.5-0.5,0.8s-0.2,0.6-0.2,1c0,0.3,0.1,0.7,0.2,1s0.3,0.6,0.5,0.8
		c0.2,0.2,0.4,0.4,0.7,0.5c0.3,0.1,0.6,0.2,0.9,0.2c0.5,0,0.9-0.1,1.2-0.4s0.6-0.6,0.8-0.9l1,0.9c-0.3,0.5-0.8,0.9-1.3,1.2
		c-0.5,0.3-1.1,0.5-1.7,0.5c-0.5,0-1-0.1-1.4-0.3c-0.4-0.2-0.8-0.5-1.1-0.8c-0.3-0.3-0.6-0.7-0.8-1.2
		C166.2,59.2,166.1,58.7,166.1,58.3z"/>
	<path id="XMLID_171_" class="st7" d="M176.5,54.6c0.9,0,1.6,0.4,2.2,1.1c0.5-0.7,1.3-1.1,2.2-1.1c0.9,0,1.6,0.3,2.1,0.9
		s0.7,1.3,0.7,2.2v4.1h-1.2v-4.3c0-0.5-0.1-0.9-0.4-1.2c-0.3-0.3-0.7-0.5-1.1-0.5c-0.5,0-0.8,0.2-1.1,0.5c-0.3,0.3-0.4,0.7-0.4,1.2
		v4.3h-1.2v-4.3c0-0.5-0.1-0.9-0.4-1.2c-0.3-0.3-0.7-0.5-1.1-0.5c-0.5,0-0.9,0.2-1.1,0.5c-0.3,0.3-0.4,0.7-0.4,1.2v4.3h-1.2v-4.1
		c0-0.9,0.2-1.6,0.7-2.2C174.9,54.9,175.6,54.6,176.5,54.6z"/>
	<path id="XMLID_173_" class="st7" d="M185.1,58.4v-7h3.7c0.5,0,0.9,0.1,1.2,0.2s0.6,0.3,0.8,0.5c0.2,0.2,0.4,0.4,0.5,0.7
		s0.1,0.5,0.1,0.7c0,0.4-0.1,0.8-0.2,1.2c-0.1,0.4-0.4,0.6-0.7,0.8c0.3,0.1,0.5,0.2,0.7,0.3c0.2,0.2,0.4,0.4,0.5,0.6
		s0.2,0.5,0.3,0.8c0.1,0.3,0.1,0.6,0.1,0.9c0,0.5-0.1,1-0.3,1.5s-0.4,0.8-0.8,1.2c-0.3,0.3-0.7,0.6-1.1,0.8
		c-0.4,0.2-0.9,0.3-1.4,0.3c-0.5,0-0.9-0.1-1.4-0.3c-0.4-0.2-0.8-0.4-1.1-0.7c-0.3-0.3-0.6-0.7-0.8-1.1S185.1,58.9,185.1,58.4z
		 M188.7,52.7h-2.3V58c0,0.8,0.2,1.5,0.5,2c0.4,0.5,0.9,0.8,1.7,0.8c0.4,0,0.7-0.1,1-0.2c0.3-0.1,0.5-0.3,0.7-0.5
		c0.2-0.2,0.3-0.5,0.4-0.8s0.2-0.6,0.2-1c0-0.3,0-0.6-0.2-0.8s-0.3-0.5-0.5-0.7c-0.2-0.2-0.4-0.4-0.7-0.5c-0.3-0.1-0.6-0.2-0.9-0.2
		c-0.3,0-0.6,0.1-1,0.2s-0.7,0.2-0.9,0.4l0.4-1.4c0.5-0.3,1.1-0.4,1.8-0.4c0.3,0,0.6-0.1,0.8-0.3s0.4-0.5,0.4-0.8
		C190.2,53,189.7,52.7,188.7,52.7z"/>
	<path id="XMLID_176_" class="st7" d="M193.4,58.3c0-0.5,0.1-0.9,0.3-1.4s0.4-0.8,0.8-1.2c0.3-0.3,0.7-0.6,1.1-0.8
		c0.4-0.2,0.9-0.3,1.4-0.3s0.9,0.1,1.4,0.3s0.8,0.5,1.1,0.8s0.6,0.7,0.8,1.2c0.2,0.4,0.3,0.9,0.3,1.4c0,0.2,0,0.4,0,0.5h-5.7
		c0.1,0.5,0.4,1,0.8,1.4c0.4,0.4,0.9,0.6,1.4,0.6c0.8,0,1.4-0.4,1.9-1.1l0.9,0.9c-0.3,0.4-0.7,0.8-1.2,1c-0.5,0.3-1,0.4-1.6,0.4
		c-0.5,0-1-0.1-1.4-0.3c-0.4-0.2-0.8-0.5-1.1-0.8c-0.3-0.3-0.6-0.7-0.8-1.2C193.4,59.2,193.4,58.7,193.4,58.3z M196.9,55.8
		c-0.6,0-1,0.2-1.4,0.6c-0.4,0.4-0.7,0.8-0.8,1.4h4.4c-0.1-0.6-0.3-1-0.8-1.4C197.9,56,197.5,55.8,196.9,55.8z"/>
	<path id="XMLID_179_" class="st7" d="M203,58.5v3.3h-1.2v-7.1h1.2v2.6h3.5v-2.6h1.2v7.1h-1.2v-3.3H203z"/>
	<path id="XMLID_181_" class="st7" d="M210.5,58.5v3.3h-1.2v-7.1h1.2v2.6h3.5v-2.6h1.2v7.1H214v-3.3H210.5z"/>
	<path id="XMLID_183_" class="st7" d="M223.6,58.8v3h-1.3v-3.5c0-0.7-0.2-1.3-0.6-1.8c-0.4-0.5-1-0.7-1.6-0.7
		c-0.7,0-1.2,0.2-1.6,0.7c-0.4,0.5-0.6,1-0.6,1.8c0,0.4,0.1,0.7,0.2,1c0.1,0.3,0.3,0.6,0.5,0.8s0.5,0.4,0.7,0.5
		c0.3,0.1,0.6,0.2,0.9,0.2c0.6,0,1.2-0.2,1.8-0.6l-0.5,1.6c-0.4,0.2-0.9,0.2-1.4,0.2c-0.4,0-0.9-0.1-1.3-0.3
		c-0.4-0.2-0.8-0.4-1.1-0.7s-0.6-0.7-0.8-1.1c-0.2-0.4-0.3-0.9-0.3-1.5c0-0.5,0.1-1,0.3-1.5c0.2-0.4,0.4-0.8,0.7-1.2
		s0.7-0.6,1.1-0.8c0.4-0.2,0.9-0.3,1.4-0.3c0.7,0,1.3,0.2,1.9,0.5s1,0.8,1.3,1.4c0.1,0.2,0.2,0.4,0.2,0.6c0.1,0.2,0.1,0.4,0.1,0.5
		c0,0.2,0,0.4,0,0.6C223.6,58.4,223.6,58.6,223.6,58.8z"/>
	<path id="XMLID_185_" class="st7" d="M230.4,58.2v3.6h-1.3v-4.4c0-0.2,0-0.5-0.1-0.7c-0.1-0.2-0.2-0.4-0.4-0.5
		c-0.1-0.1-0.3-0.3-0.5-0.3c-0.2-0.1-0.4-0.1-0.6-0.1c-0.4,0-0.8,0.2-1.1,0.5c-0.3,0.3-0.5,0.7-0.5,1.1c0,0.4,0.2,0.8,0.5,1.1
		c0.3,0.3,0.7,0.5,1.1,0.5c0.5,0,0.9-0.2,1.2-0.5l-0.4,1.6c-0.1,0.1-0.2,0.1-0.3,0.1l-1.7,1.7l-0.9-1l1-0.9c-0.5-0.2-0.9-0.6-1.2-1
		c-0.3-0.5-0.4-1-0.4-1.5c0-0.4,0.1-0.7,0.2-1.1s0.3-0.6,0.6-0.9s0.5-0.5,0.9-0.6c0.3-0.2,0.7-0.2,1.1-0.2c1.2,0,2.1,0.6,2.7,1.7
		C230.4,56.6,230.4,57.3,230.4,58.2z"/>
	<path id="XMLID_187_" class="st7" d="M237.9,61.8h-1.3v-7.1h1.3v2.8l3-2.8h1.5l-2.6,2.5c0.3,0,0.6,0.1,0.9,0.2
		c0.3,0.1,0.5,0.3,0.7,0.6c0.2,0.2,0.4,0.5,0.5,0.8c0.1,0.3,0.2,0.6,0.2,0.8v2.2h-1.3v-2c0-0.5-0.2-0.8-0.5-1.1
		c-0.3-0.3-0.7-0.4-1.1-0.4c-0.3,0-0.6,0.1-0.8,0.3c-0.2,0.2-0.4,0.5-0.5,0.8V61.8z"/>
	<path id="XMLID_189_" class="st7" d="M246.7,54.6c0.5,0,1,0.1,1.4,0.3c0.4,0.2,0.8,0.5,1.1,0.8s0.6,0.7,0.8,1.2
		c0.2,0.4,0.3,0.9,0.3,1.4c0,0.5-0.1,1-0.3,1.4c-0.2,0.4-0.4,0.8-0.8,1.2c-0.3,0.3-0.7,0.6-1.1,0.8s-0.9,0.3-1.4,0.3
		c-0.5,0-1-0.1-1.4-0.3c-0.4-0.2-0.8-0.5-1.1-0.8s-0.6-0.7-0.8-1.2c-0.2-0.4-0.3-0.9-0.3-1.4s0.1-0.9,0.3-1.4
		c0.2-0.4,0.4-0.8,0.8-1.2c0.3-0.3,0.7-0.6,1.1-0.8S246.2,54.6,246.7,54.6z M246.7,55.8c-0.3,0-0.6,0.1-0.9,0.2
		c-0.3,0.1-0.5,0.3-0.7,0.5c-0.2,0.2-0.4,0.5-0.5,0.8c-0.1,0.3-0.2,0.6-0.2,0.9c0,0.3,0.1,0.6,0.2,0.9c0.1,0.3,0.3,0.6,0.5,0.8
		c0.2,0.2,0.4,0.4,0.7,0.5s0.6,0.2,0.9,0.2c0.3,0,0.6-0.1,0.9-0.2c0.3-0.1,0.5-0.3,0.7-0.5c0.2-0.2,0.4-0.5,0.5-0.8
		c0.1-0.3,0.2-0.6,0.2-1c0-0.3-0.1-0.7-0.2-1c-0.1-0.3-0.3-0.6-0.5-0.8c-0.2-0.2-0.4-0.4-0.7-0.5C247.3,55.9,247,55.8,246.7,55.8z"
		/>
	<path id="XMLID_192_" class="st7" d="M257.4,54.6c0.5,0,0.8,0.3,0.9,0.8l1.3,6.4h-1.3l-1-5.6l-1.2,4.5c-0.2,0.7-0.5,1.1-0.9,1.1
		c-0.2,0-0.4-0.1-0.6-0.2c-0.1-0.2-0.3-0.4-0.4-0.8l-1.2-4.5l-1,5.6h-1.3l1.3-6.4c0.1-0.6,0.4-0.8,0.9-0.8c0.5,0,0.8,0.3,1,0.8
		l1.3,4.5l1.3-4.5C256.7,54.8,257,54.6,257.4,54.6z"/>
	<path id="XMLID_194_" class="st7" d="M261.6,57.7v4.1h-1.2V58c0-0.5,0.1-1,0.2-1.4c0.1-0.4,0.4-0.8,0.6-1c0.3-0.3,0.6-0.5,1-0.7
		c0.4-0.1,0.8-0.2,1.2-0.2c0.9,0,1.6,0.3,2.2,0.9s0.8,1.4,0.8,2.5v3.9h-1.2v-4.1c0-0.6-0.2-1-0.5-1.4c-0.3-0.4-0.7-0.5-1.3-0.5
		c-0.5,0-1,0.2-1.3,0.6S261.6,57.2,261.6,57.7z"/>
	<path id="XMLID_196_" class="st7" d="M274.7,58.8v3h-1.3v-3.5c0-0.7-0.2-1.3-0.6-1.8c-0.4-0.5-1-0.7-1.6-0.7
		c-0.7,0-1.2,0.2-1.6,0.7c-0.4,0.5-0.6,1-0.6,1.8c0,0.4,0.1,0.7,0.2,1c0.1,0.3,0.3,0.6,0.5,0.8s0.5,0.4,0.7,0.5
		c0.3,0.1,0.6,0.2,0.9,0.2c0.6,0,1.2-0.2,1.8-0.6l-0.5,1.6c-0.4,0.2-0.9,0.2-1.4,0.2c-0.4,0-0.9-0.1-1.3-0.3
		c-0.4-0.2-0.8-0.4-1.1-0.7s-0.6-0.7-0.8-1.1c-0.2-0.4-0.3-0.9-0.3-1.5c0-0.5,0.1-1,0.3-1.5c0.2-0.4,0.4-0.8,0.7-1.2
		s0.7-0.6,1.1-0.8c0.4-0.2,0.9-0.3,1.4-0.3c0.7,0,1.3,0.2,1.9,0.5s1,0.8,1.3,1.4c0.1,0.2,0.2,0.4,0.2,0.6c0.1,0.2,0.1,0.4,0.1,0.5
		c0,0.2,0,0.4,0,0.6C274.7,58.4,274.7,58.6,274.7,58.8z"/>
	<path id="XMLID_198_" class="st7" d="M277.5,58.5v3.3h-1.2v-7.1h1.2v2.6h3.5v-2.6h1.2v7.1H281v-3.3H277.5z"/>
	<path id="XMLID_200_" class="st7" d="M288.6,58.9v-4.2h1.2v7.1h-1.2v-0.6c-0.4,0.4-1,0.7-1.8,0.7c-1,0-1.7-0.3-2.2-0.8
		c-0.5-0.6-0.8-1.3-0.8-2.3v-4.1h1.2v4.1c0,0.5,0.2,1,0.5,1.3c0.3,0.4,0.7,0.6,1.3,0.6c0.5,0,1-0.2,1.3-0.6
		C288.4,59.8,288.6,59.4,288.6,58.9z"/>
	<path id="XMLID_202_" class="st7" d="M296.7,58.2v3.6h-1.3v-4.4c0-0.2,0-0.5-0.1-0.7c-0.1-0.2-0.2-0.4-0.4-0.5
		c-0.1-0.1-0.3-0.3-0.5-0.3c-0.2-0.1-0.4-0.1-0.6-0.1c-0.4,0-0.8,0.2-1.1,0.5c-0.3,0.3-0.5,0.7-0.5,1.1c0,0.4,0.2,0.8,0.5,1.1
		c0.3,0.3,0.7,0.5,1.1,0.5c0.5,0,0.9-0.2,1.2-0.5l-0.4,1.6c-0.1,0.1-0.2,0.1-0.3,0.1l-1.7,1.7l-0.9-1l1-0.9c-0.5-0.2-0.9-0.6-1.2-1
		c-0.3-0.5-0.4-1-0.4-1.5c0-0.4,0.1-0.7,0.2-1.1s0.3-0.6,0.6-0.9s0.5-0.5,0.9-0.6c0.3-0.2,0.7-0.2,1.1-0.2c1.2,0,2.1,0.6,2.7,1.7
		C296.6,56.6,296.7,57.3,296.7,58.2z"/>
</g>
<path id="XMLID_26_" class="st8" d="M198.9,71.9"/>
<g id="XMLID_15_">
	<path id="XMLID_25_" class="st6" d="M58.1,53.9c5.3-0.4,11-7.7,10.8-12.9l0-7.1l0-10l-5.9,7.3l0,10.3C63.1,45.3,62,49.2,58.1,53.9
		L58.1,53.9z"/>
	<g id="XMLID_16_">
		<path id="XMLID_24_" class="st6" d="M43.7,39.5c-1.5,1.9-2.9,3.7-4.4,5.6c0.2,7.3,4.8,13.4,10.7,15c7.7,2,17.2-3.9,18.8-14
			c-2.2,6.8-9.4,10.7-16.1,8.7C46.4,52.9,42.4,46.2,43.7,39.5z"/>
		<g id="XMLID_22_">
			<path id="XMLID_23_" class="st6" d="M16.4,39c-0.1-0.8-0.7-8.3,4.9-13.1c3.2-2.7,6.7-3.2,8.2-3.4l7.1,0c3.5,0,7,0,10.4,0
				c-1.5,1.9-3,3.8-4.5,5.7c-4.5,0.1-9.1,0.1-13.6,0.2c-1.9,0-2.7,0.1-3.8,0.4C20.3,30.2,17.7,35.6,16.4,39z"/>
		</g>
		<g id="XMLID_17_">
			<g id="XMLID_20_">
				<path id="XMLID_21_" class="st6" d="M16,55.5c0-0.4-0.1-0.9-0.1-1.6c0-2.3-0.1-6.9,2.4-10.3c3.2-4.2,9.1-4.3,10-4.3
					c1.3,0,2.6,0,3.9,0c3.5,0,7,0,10.4,0c-1.5,1.9-3,3.7-4.5,5.6c-5.3,0-9.2,0-10.8,0c-0.3,0-1.1,0-1.9,0.4
					c-0.8,0.3-1.3,0.7-1.6,0.9c0,0-3.8,2.9-3.8,10.7c0,0.1,0,0.8,0,1.7c0,0.5,0,0.9,0,1.4c0,0.8-0.1,0.8-0.1,1.4c0,0.3,0,0.5,0,0.5
					C19.7,62,18.8,60.6,16,55.5z"/>
			</g>
			<g id="XMLID_18_">
				<path id="XMLID_19_" class="st6" d="M23.9,40.3c-0.2,0.2-0.9,1.1-1,2.4c-0.1,1.5,0.8,2.6,0.9,2.8c-0.5,0.7-1.2,1.8-1.7,3.3
					c-0.6,1.7-0.7,3.2-0.7,4.2c0,3.5,0,6.9,0,10.4c-1.9-1.5-3.8-3-5.7-4.5c-0.1-1.2-0.2-3.1-0.1-5.4c0.3-4.4,0.5-7.8,2.9-10.4
					C19.4,42.3,21,40.9,23.9,40.3z"/>
			</g>
		</g>
	</g>
</g>
</svg>
